<mxfile host="app.diagrams.net" agent="Mozilla/5.0 (Windows NT 10.0; Win64; x64) AppleWebKit/537.36 (KHTML, like Gecko) Chrome/140.0.0.0 Safari/537.36" version="28.2.5">
  <diagram name="PÃ¡gina-1" id="4jFAk8XQg4Tfc30ZATFa">
    <mxGraphModel dx="1804" dy="942" grid="0" gridSize="10" guides="1" tooltips="1" connect="1" arrows="1" fold="1" page="1" pageScale="1" pageWidth="1800" pageHeight="1000" math="0" shadow="0">
      <root>
        <mxCell id="0" />
        <mxCell id="1" parent="0" />
        <mxCell id="7YLnDGXh6QLaDtaTlCef-1" value="" style="shape=cylinder3;whiteSpace=wrap;html=1;boundedLbl=1;backgroundOutline=1;size=15;" parent="1" vertex="1">
          <mxGeometry x="420" y="544" width="90" height="110" as="geometry" />
        </mxCell>
        <mxCell id="7YLnDGXh6QLaDtaTlCef-14" value="" style="edgeStyle=orthogonalEdgeStyle;rounded=0;orthogonalLoop=1;jettySize=auto;html=1;" parent="1" source="7YLnDGXh6QLaDtaTlCef-3" target="7YLnDGXh6QLaDtaTlCef-7" edge="1">
          <mxGeometry relative="1" as="geometry" />
        </mxCell>
        <mxCell id="7YLnDGXh6QLaDtaTlCef-3" value="" style="whiteSpace=wrap;html=1;shape=mxgraph.basic.document" parent="1" vertex="1">
          <mxGeometry x="150" y="552" width="70" height="94" as="geometry" />
        </mxCell>
        <mxCell id="7YLnDGXh6QLaDtaTlCef-13" value="" style="edgeStyle=orthogonalEdgeStyle;rounded=0;orthogonalLoop=1;jettySize=auto;html=1;" parent="1" source="7YLnDGXh6QLaDtaTlCef-4" target="7YLnDGXh6QLaDtaTlCef-3" edge="1">
          <mxGeometry relative="1" as="geometry" />
        </mxCell>
        <mxCell id="7YLnDGXh6QLaDtaTlCef-4" value="" style="sketch=0;outlineConnect=0;fontColor=#232F3E;gradientColor=none;fillColor=#232F3D;strokeColor=none;dashed=0;verticalLabelPosition=bottom;verticalAlign=top;align=center;html=1;fontSize=12;fontStyle=0;aspect=fixed;pointerEvents=1;shape=mxgraph.aws4.source_code;" parent="1" vertex="1">
          <mxGeometry x="32" y="560" width="57" height="78" as="geometry" />
        </mxCell>
        <mxCell id="7YLnDGXh6QLaDtaTlCef-15" value="" style="edgeStyle=orthogonalEdgeStyle;rounded=0;orthogonalLoop=1;jettySize=auto;html=1;" parent="1" source="7YLnDGXh6QLaDtaTlCef-7" target="7YLnDGXh6QLaDtaTlCef-1" edge="1">
          <mxGeometry relative="1" as="geometry" />
        </mxCell>
        <mxCell id="7YLnDGXh6QLaDtaTlCef-7" value="" style="sketch=0;outlineConnect=0;fontColor=#232F3E;gradientColor=none;fillColor=#232F3D;strokeColor=none;dashed=0;verticalLabelPosition=bottom;verticalAlign=top;align=center;html=1;fontSize=12;fontStyle=0;aspect=fixed;pointerEvents=1;shape=mxgraph.aws4.source_code;" parent="1" vertex="1">
          <mxGeometry x="290" y="560" width="57" height="78" as="geometry" />
        </mxCell>
        <mxCell id="7YLnDGXh6QLaDtaTlCef-9" value="" style="shape=trapezoid;perimeter=trapezoidPerimeter;whiteSpace=wrap;html=1;fixedSize=1;rotation=-180;" parent="1" vertex="1">
          <mxGeometry x="606" y="562" width="136" height="74" as="geometry" />
        </mxCell>
        <mxCell id="7YLnDGXh6QLaDtaTlCef-16" value="Python" style="text;html=1;align=center;verticalAlign=middle;resizable=0;points=[];autosize=1;strokeColor=none;fillColor=none;" parent="1" vertex="1">
          <mxGeometry x="29" y="530" width="60" height="30" as="geometry" />
        </mxCell>
        <mxCell id="7YLnDGXh6QLaDtaTlCef-17" value="CSV&lt;div&gt;Kaggle&lt;/div&gt;" style="text;html=1;align=center;verticalAlign=middle;resizable=0;points=[];autosize=1;strokeColor=none;fillColor=none;" parent="1" vertex="1">
          <mxGeometry x="157" y="579" width="55" height="41" as="geometry" />
        </mxCell>
        <mxCell id="7YLnDGXh6QLaDtaTlCef-18" value="Python" style="text;html=1;align=center;verticalAlign=middle;resizable=0;points=[];autosize=1;strokeColor=none;fillColor=none;" parent="1" vertex="1">
          <mxGeometry x="287" y="530" width="60" height="30" as="geometry" />
        </mxCell>
        <mxCell id="7YLnDGXh6QLaDtaTlCef-19" value="&lt;font&gt;PostgreSQL&lt;/font&gt;" style="text;html=1;align=center;verticalAlign=middle;resizable=0;points=[];autosize=1;strokeColor=none;fillColor=none;" parent="1" vertex="1">
          <mxGeometry x="420" y="584" width="90" height="30" as="geometry" />
        </mxCell>
        <mxCell id="7YLnDGXh6QLaDtaTlCef-21" value="SnowFlake" style="text;html=1;align=center;verticalAlign=middle;resizable=0;points=[];autosize=1;strokeColor=none;fillColor=none;" parent="1" vertex="1">
          <mxGeometry x="633" y="583" width="80" height="30" as="geometry" />
        </mxCell>
        <mxCell id="7YLnDGXh6QLaDtaTlCef-20" value="Airbyte" style="text;html=1;align=center;verticalAlign=middle;resizable=0;points=[];autosize=1;strokeColor=none;fillColor=none;" parent="1" vertex="1">
          <mxGeometry x="530" y="584" width="60" height="30" as="geometry" />
        </mxCell>
        <mxCell id="UtLxQ1kZafexSN3_9Yuy-6" value="" style="endArrow=none;html=1;rounded=0;exitX=1;exitY=0.5;exitDx=0;exitDy=0;exitPerimeter=0;" edge="1" parent="1" source="7YLnDGXh6QLaDtaTlCef-1" target="7YLnDGXh6QLaDtaTlCef-20">
          <mxGeometry width="50" height="50" relative="1" as="geometry">
            <mxPoint x="470" y="530" as="sourcePoint" />
            <mxPoint x="520" y="480" as="targetPoint" />
          </mxGeometry>
        </mxCell>
        <mxCell id="UtLxQ1kZafexSN3_9Yuy-7" value="" style="endArrow=classic;html=1;rounded=0;entryX=1;entryY=0.5;entryDx=0;entryDy=0;" edge="1" parent="1" source="7YLnDGXh6QLaDtaTlCef-20" target="7YLnDGXh6QLaDtaTlCef-9">
          <mxGeometry width="50" height="50" relative="1" as="geometry">
            <mxPoint x="470" y="530" as="sourcePoint" />
            <mxPoint x="520" y="480" as="targetPoint" />
          </mxGeometry>
        </mxCell>
        <mxCell id="UtLxQ1kZafexSN3_9Yuy-8" value="" style="image;aspect=fixed;html=1;points=[];align=center;fontSize=12;image=img/lib/azure2/power_platform/PowerBI.svg;" vertex="1" parent="1">
          <mxGeometry x="1590" y="554" width="73.5" height="98" as="geometry" />
        </mxCell>
        <mxCell id="UtLxQ1kZafexSN3_9Yuy-9" value="RAW" style="text;html=1;align=center;verticalAlign=middle;resizable=0;points=[];autosize=1;strokeColor=none;fillColor=none;" vertex="1" parent="1">
          <mxGeometry x="651" y="640" width="46" height="26" as="geometry" />
        </mxCell>
        <mxCell id="UtLxQ1kZafexSN3_9Yuy-10" value="" style="endArrow=none;html=1;rounded=0;exitX=0;exitY=0.5;exitDx=0;exitDy=0;entryX=0.073;entryY=0.508;entryDx=0;entryDy=0;entryPerimeter=0;" edge="1" parent="1" source="7YLnDGXh6QLaDtaTlCef-9" target="UtLxQ1kZafexSN3_9Yuy-11">
          <mxGeometry width="50" height="50" relative="1" as="geometry">
            <mxPoint x="732.0000000000002" y="598" as="sourcePoint" />
            <mxPoint x="771" y="599" as="targetPoint" />
          </mxGeometry>
        </mxCell>
        <mxCell id="UtLxQ1kZafexSN3_9Yuy-11" value="dbt" style="text;html=1;align=center;verticalAlign=middle;resizable=0;points=[];autosize=1;strokeColor=none;fillColor=none;" vertex="1" parent="1">
          <mxGeometry x="775" y="583.5" width="40" height="30" as="geometry" />
        </mxCell>
        <mxCell id="UtLxQ1kZafexSN3_9Yuy-16" value="" style="shape=trapezoid;perimeter=trapezoidPerimeter;whiteSpace=wrap;html=1;fixedSize=1;rotation=-180;" vertex="1" parent="1">
          <mxGeometry x="857" y="566" width="136" height="74" as="geometry" />
        </mxCell>
        <mxCell id="UtLxQ1kZafexSN3_9Yuy-20" value="" style="endArrow=classic;html=1;rounded=0;exitX=0.927;exitY=0.538;exitDx=0;exitDy=0;exitPerimeter=0;" edge="1" parent="1" source="UtLxQ1kZafexSN3_9Yuy-11">
          <mxGeometry width="50" height="50" relative="1" as="geometry">
            <mxPoint x="790" y="680" as="sourcePoint" />
            <mxPoint x="860" y="600" as="targetPoint" />
          </mxGeometry>
        </mxCell>
        <mxCell id="UtLxQ1kZafexSN3_9Yuy-22" value="SnowFlake" style="text;html=1;align=center;verticalAlign=middle;resizable=0;points=[];autosize=1;strokeColor=none;fillColor=none;" vertex="1" parent="1">
          <mxGeometry x="882" y="583" width="80" height="30" as="geometry" />
        </mxCell>
        <mxCell id="UtLxQ1kZafexSN3_9Yuy-23" value="BRONZE" style="text;html=1;align=center;verticalAlign=middle;resizable=0;points=[];autosize=1;strokeColor=none;fillColor=none;" vertex="1" parent="1">
          <mxGeometry x="890" y="638" width="70" height="30" as="geometry" />
        </mxCell>
        <mxCell id="UtLxQ1kZafexSN3_9Yuy-26" value="" style="endArrow=none;html=1;rounded=0;exitX=0;exitY=0.5;exitDx=0;exitDy=0;entryX=0.073;entryY=0.508;entryDx=0;entryDy=0;entryPerimeter=0;" edge="1" parent="1" target="UtLxQ1kZafexSN3_9Yuy-27">
          <mxGeometry width="50" height="50" relative="1" as="geometry">
            <mxPoint x="985" y="599" as="sourcePoint" />
            <mxPoint x="1024" y="599" as="targetPoint" />
          </mxGeometry>
        </mxCell>
        <mxCell id="UtLxQ1kZafexSN3_9Yuy-27" value="dbt" style="text;html=1;align=center;verticalAlign=middle;resizable=0;points=[];autosize=1;strokeColor=none;fillColor=none;" vertex="1" parent="1">
          <mxGeometry x="1028" y="583.5" width="40" height="30" as="geometry" />
        </mxCell>
        <mxCell id="UtLxQ1kZafexSN3_9Yuy-28" value="" style="shape=trapezoid;perimeter=trapezoidPerimeter;whiteSpace=wrap;html=1;fixedSize=1;rotation=-180;" vertex="1" parent="1">
          <mxGeometry x="1110" y="566" width="136" height="74" as="geometry" />
        </mxCell>
        <mxCell id="UtLxQ1kZafexSN3_9Yuy-29" value="" style="endArrow=classic;html=1;rounded=0;exitX=0.927;exitY=0.538;exitDx=0;exitDy=0;exitPerimeter=0;" edge="1" parent="1" source="UtLxQ1kZafexSN3_9Yuy-27">
          <mxGeometry width="50" height="50" relative="1" as="geometry">
            <mxPoint x="1043" y="680" as="sourcePoint" />
            <mxPoint x="1113" y="600" as="targetPoint" />
          </mxGeometry>
        </mxCell>
        <mxCell id="UtLxQ1kZafexSN3_9Yuy-30" value="SnowFlake" style="text;html=1;align=center;verticalAlign=middle;resizable=0;points=[];autosize=1;strokeColor=none;fillColor=none;" vertex="1" parent="1">
          <mxGeometry x="1135" y="583" width="80" height="30" as="geometry" />
        </mxCell>
        <mxCell id="UtLxQ1kZafexSN3_9Yuy-31" value="SILVER" style="text;html=1;align=center;verticalAlign=middle;resizable=0;points=[];autosize=1;strokeColor=none;fillColor=none;" vertex="1" parent="1">
          <mxGeometry x="1143" y="638" width="70" height="30" as="geometry" />
        </mxCell>
        <mxCell id="UtLxQ1kZafexSN3_9Yuy-32" value="" style="endArrow=none;html=1;rounded=0;exitX=0;exitY=0.5;exitDx=0;exitDy=0;entryX=0.073;entryY=0.508;entryDx=0;entryDy=0;entryPerimeter=0;" edge="1" parent="1" target="UtLxQ1kZafexSN3_9Yuy-33">
          <mxGeometry width="50" height="50" relative="1" as="geometry">
            <mxPoint x="1239" y="599" as="sourcePoint" />
            <mxPoint x="1278" y="599" as="targetPoint" />
          </mxGeometry>
        </mxCell>
        <mxCell id="UtLxQ1kZafexSN3_9Yuy-33" value="dbt" style="text;html=1;align=center;verticalAlign=middle;resizable=0;points=[];autosize=1;strokeColor=none;fillColor=none;" vertex="1" parent="1">
          <mxGeometry x="1282" y="583.5" width="40" height="30" as="geometry" />
        </mxCell>
        <mxCell id="UtLxQ1kZafexSN3_9Yuy-38" style="edgeStyle=orthogonalEdgeStyle;rounded=0;orthogonalLoop=1;jettySize=auto;html=1;exitX=0;exitY=0.5;exitDx=0;exitDy=0;" edge="1" parent="1" source="UtLxQ1kZafexSN3_9Yuy-34" target="UtLxQ1kZafexSN3_9Yuy-8">
          <mxGeometry relative="1" as="geometry" />
        </mxCell>
        <mxCell id="UtLxQ1kZafexSN3_9Yuy-34" value="" style="shape=trapezoid;perimeter=trapezoidPerimeter;whiteSpace=wrap;html=1;fixedSize=1;rotation=-180;" vertex="1" parent="1">
          <mxGeometry x="1364" y="566" width="136" height="74" as="geometry" />
        </mxCell>
        <mxCell id="UtLxQ1kZafexSN3_9Yuy-35" value="" style="endArrow=classic;html=1;rounded=0;exitX=0.927;exitY=0.538;exitDx=0;exitDy=0;exitPerimeter=0;" edge="1" parent="1" source="UtLxQ1kZafexSN3_9Yuy-33">
          <mxGeometry width="50" height="50" relative="1" as="geometry">
            <mxPoint x="1297" y="680" as="sourcePoint" />
            <mxPoint x="1367" y="600" as="targetPoint" />
          </mxGeometry>
        </mxCell>
        <mxCell id="UtLxQ1kZafexSN3_9Yuy-36" value="SnowFlake" style="text;html=1;align=center;verticalAlign=middle;resizable=0;points=[];autosize=1;strokeColor=none;fillColor=none;" vertex="1" parent="1">
          <mxGeometry x="1389" y="583" width="80" height="30" as="geometry" />
        </mxCell>
        <mxCell id="UtLxQ1kZafexSN3_9Yuy-37" value="GOLD" style="text;html=1;align=center;verticalAlign=middle;resizable=0;points=[];autosize=1;strokeColor=none;fillColor=none;" vertex="1" parent="1">
          <mxGeometry x="1402" y="638" width="60" height="30" as="geometry" />
        </mxCell>
        <mxCell id="UtLxQ1kZafexSN3_9Yuy-40" value="" style="swimlane;startSize=0;" vertex="1" parent="1">
          <mxGeometry x="10" y="400" width="250" height="370" as="geometry" />
        </mxCell>
        <mxCell id="UtLxQ1kZafexSN3_9Yuy-43" value="&lt;font style=&quot;font-size: 26px;&quot;&gt;Extract&lt;/font&gt;" style="text;html=1;align=center;verticalAlign=middle;resizable=0;points=[];autosize=1;strokeColor=none;fillColor=none;" vertex="1" parent="UtLxQ1kZafexSN3_9Yuy-40">
          <mxGeometry x="59" y="42" width="100" height="40" as="geometry" />
        </mxCell>
        <mxCell id="UtLxQ1kZafexSN3_9Yuy-41" value="" style="swimlane;startSize=0;" vertex="1" parent="1">
          <mxGeometry x="270" y="400" width="479" height="370" as="geometry" />
        </mxCell>
        <mxCell id="UtLxQ1kZafexSN3_9Yuy-44" value="&lt;font style=&quot;font-size: 26px;&quot;&gt;Load&lt;/font&gt;" style="text;html=1;align=center;verticalAlign=middle;resizable=0;points=[];autosize=1;strokeColor=none;fillColor=none;" vertex="1" parent="UtLxQ1kZafexSN3_9Yuy-41">
          <mxGeometry x="195" y="42" width="80" height="40" as="geometry" />
        </mxCell>
        <mxCell id="UtLxQ1kZafexSN3_9Yuy-42" value="" style="swimlane;startSize=0;" vertex="1" parent="1">
          <mxGeometry x="757" y="400" width="790" height="370" as="geometry" />
        </mxCell>
        <mxCell id="UtLxQ1kZafexSN3_9Yuy-45" value="&lt;font style=&quot;font-size: 26px;&quot;&gt;Transform&lt;/font&gt;" style="text;html=1;align=center;verticalAlign=middle;resizable=0;points=[];autosize=1;strokeColor=none;fillColor=none;" vertex="1" parent="UtLxQ1kZafexSN3_9Yuy-42">
          <mxGeometry x="355" y="42" width="140" height="40" as="geometry" />
        </mxCell>
      </root>
    </mxGraphModel>
  </diagram>
</mxfile>
